<?xml version="1.0" encoding="UTF-8"?>
<svg id="Layer_1" xmlns="http://www.w3.org/2000/svg" version="1.1" viewBox="0 0 352.1 330.9">
  <!-- Generator: Adobe Illustrator 29.3.1, SVG Export Plug-In . SVG Version: 2.1.0 Build 151)  -->
  <g>
    <circle cx="69.3" cy="208.6" r="5.2"/>
    <circle cx="108.5" cy="212.5" r="5.2"/>
    <circle cx="108.5" cy="228.3" r="5.2"/>
    <circle cx="130" cy="221.4" r="5.2"/>
    <circle cx="173.9" cy="239.7" r="7"/>
    <circle cx="174.2" cy="296.6" r="7"/>
    <circle cx="215" cy="297.6" r="7"/>
    <circle cx="173.9" cy="320.4" r="7"/>
    <circle cx="145.6" cy="226.6" r="5.2"/>
    <circle cx="215" cy="224.3" r="5.2"/>
    <circle cx="240.1" cy="212.5" r="5.2"/>
    <circle cx="283.6" cy="225.1" r="5.2"/>
    <circle cx="266.9" cy="216.2" r="5.2"/>
    <circle cx="240.1" cy="263.9" r="5.2"/>
    <circle cx="145.6" cy="246.4" r="5.2"/>
    <circle cx="145.6" cy="303.5" r="6"/>
    <circle cx="159.2" cy="256.6" r="5.6"/>
    <circle cx="195.5" cy="305.2" r="5.6"/>
    <circle cx="91.3" cy="249.7" r="5.2"/>
    <circle cx="108.5" cy="271.1" r="5.2"/>
    <circle cx="119.5" cy="263.9" r="5.2"/>
    <circle cx="131.9" cy="288.2" r="5.2"/>
    <circle cx="91.3" cy="200.5" r="3.3"/>
    <circle cx="119.1" cy="249.7" r="3.3"/>
    <circle cx="255.5" cy="223" r="3.3"/>
    <circle cx="264.9" cy="253" r="3.3"/>
    <circle cx="226.5" cy="265.9" r="4.6"/>
    <circle cx="76.7" cy="222.2" r="3.3"/>
    <circle cx="226.5" cy="233.5" r="4.6"/>
    <circle cx="283.6" cy="193.4" r="4.6"/>
    <polygon points="132.5 238.8 127.5 238.8 127.5 223.1 71.8 199.6 71.8 208.6 66.8 208.6 66.8 192 132.5 219.7 132.5 238.8"/>
    <polygon points="117.9 251.9 88.8 236.4 88.8 200.5 93.8 200.5 93.8 233.4 120.3 247.5 117.9 251.9"/>
    <rect x="106" y="212.4" width="5" height="58.8"/>
    <rect x="102.9" y="241" width="5" height="31.6" transform="translate(-171.4 235.9) rotate(-63.4)"/>
    <rect x="124.5" y="216.7" width="5" height="41.3" transform="translate(-142 247) rotate(-63.9)"/>
    <rect x="129.4" y="251" width="5" height="37.2"/>
    <rect x="157.1" y="256.6" width="5" height="35.4"/>
    <polygon points="176.4 320.4 171.4 320.4 171.4 241.3 148.1 230.5 148.1 303.5 143.1 303.5 143.1 222.7 176.4 238.1 176.4 320.4"/>
    <path d="M193,309v-74.2l-18.3,7.2-1.8-4.6,44.6-17.7v78.5l-24.5,10.8ZM198,232.8v68.5l14.5-6.4v-67.9l-14.5,5.7Z"/>
    <polygon points="237.6 267.7 237.6 213.8 242.6 213.8 242.6 260.1 264.2 250.8 266.1 255.4 237.6 267.7"/>
    <rect x="212.5" y="237.5" width="74.2" height="5" transform="translate(-75.5 120.9) rotate(-23.8)"/>
    <rect x="253" y="205.2" width="5" height="17.8"/>
    <rect x="264.4" y="200.4" width="5" height="15.8"/>
    <rect x="214.6" y="265.7" width="12.3" height="5" transform="translate(-83.6 100.8) rotate(-21.7)"/>
    <polygon points="229 233.3 224 233.3 224 215.8 282.6 191 284.6 195.6 229 219.2 229 233.3"/>
    <rect x="214.6" y="233.3" width="12.3" height="5" transform="translate(-71.6 98.5) rotate(-21.7)"/>
    <rect x="81.9" y="217.5" width="5" height="17.2" transform="translate(-155.6 200.2) rotate(-63.4)"/>
  </g>
  <g>
    <path d="M77.3,100.4h0v44.9l97,40.6,101.5-42,.3-44.2-101.5,37.1-97.3-36.5Z"/>
    <polygon points="339.2 64.3 333 54.4 176.9 11.9 22.3 54.8 16.6 63.4 176.4 19.5 339.2 64.3"/>
    <path d="M346.9,151.1c-1-1.2-3.9-2-6.8-2.5l-.8-14.3c-.3-.4-1-.7-1.8-.9v-61.4c-53-14.5-108.4-27.2-160.9-42.9l-118.2,31.3-40.8,10.1v2.2c52.6,18.2,105,37.1,157.2,56.5,52-18.9,103.1-37.5,155.6-54.9l.6,58.9c-.9.2-1.8.6-2.1,1l-.8,14.3c-2.8.5-5.8,1.4-6.8,2.5l-2.5,43.2c2.4,3,11.4,3.4,15.3,3.4s12.9-.4,15.3-3.4l-2.5-43.2ZM174.7,78.1l-41.4-15.3s43.7-14.1,43.7-14.1h0s42.3,14.1,42.3,14.1l-44.7,15.3Z"/>
    <path d="M31.7,149v-27.3c-.9-1.4-3.5-2.3-6.1-2.9v-13c-.5-.6-1.8-1-3.1-1.3v-32.9c0-.3-2-1.8-2.2-1.8h0s-2.6.6-2.6.6v34c-1.7.2-3.7.6-4.2,1.4v13c-2.6.6-5.2,1.5-6.1,2.9v27.3c-.5.2-.9.5-1.2.8v25.8c2.2,2.9,9.3,4.6,12.7,4.6s11.8-1.7,14-4.6v-25.8c-.3-.3-.7-.6-1.2-.8Z"/>
    <path d="M66.3,157l108,46.8,111.1-46.9s2.8.3,3,2.9v11l-113.8,49c-37.2-16.7-76-32.2-112.4-49.5,0,0,0-7.3,0-10.9s4-2.4,4-2.4h0Z"/>
  </g>
</svg>